<?xml version="1.0" encoding="utf-8"?>
<!-- Svg Vector Icons : http://www.onlinewebfonts.com/icon -->
<!DOCTYPE svg PUBLIC "-//W3C//DTD SVG 1.1//EN" "http://www.w3.org/Graphics/SVG/1.1/DTD/svg11.dtd">
<svg version="1.1" xmlns="http://www.w3.org/2000/svg" xmlns:xlink="http://www.w3.org/1999/xlink" x="0px" y="0px" viewBox="0 0 256 256" enable-background="new 0 0 256 256" xml:space="preserve">
<metadata> Svg Vector Icons : http://www.onlinewebfonts.com/icon </metadata>
<g><g><path fill="#000000" d="M157.5,120.7c0,4.1-3.3,7.4-7.4,7.4c-4.1,0-7.4-3.3-7.4-7.4s3.3-7.4,7.4-7.4C154.2,113.3,157.5,116.6,157.5,120.7z M216.5,17.4v177.1c0,4.1-3.3,7.4-7.4,7.4h-36.9v36.8c0,4.1-3.3,7.4-5.1,7.4H49.2c-6.4,0-9.7-3.3-9.7-7.4V61.7c0-4.1,3.3-7.4,7.4-7.4h36.9v-37c0-4.1,3.3-7.4,7.4-7.4h117.9C213.2,10,216.5,13.3,216.5,17.4z M142.6,160c0-1.4-1.1-2.6-2.6-2.6h-26.9l29.4,29.6V160z M157.5,201.8h-14c-0.3,0-0.5,0-0.8,0c-2,0-3.7-0.8-5.1-2l0,0l-50.9-51.4c-1.7-1.3-2.8-3.4-2.8-5.8V69.1h-27c-1.4,0-2.6,1.1-2.6,2.6v157.1c0,1.4,1.1,2.6,2.6,2.6h98.1c1.4,0,2.6-1.1,2.6-2.6L157.5,201.8L157.5,201.8z M201.7,27.3c0-1.4-1.1-2.6-2.6-2.6h-98c-1.4,0-2.6,1.1-2.6,2.6v115.4H150c4.1,0,7.4,3.3,7.4,7.4v37.1h41.8c1.4,0,2.6-1.1,2.6-2.6L201.7,27.3L201.7,27.3z M150.2,98.8c4.1,0,7.4-3.3,7.4-7.4V47.3c0-4.1-3.3-7.4-7.4-7.4c-4.1,0-7.4,3.3-7.4,7.4v44.2C142.8,95.5,146.1,98.8,150.2,98.8z"/></g></g>
</svg>