<?xml version="1.0" encoding="utf-8"?>
<!-- Svg Vector Icons : http://www.onlinewebfonts.com/icon -->
<!DOCTYPE svg PUBLIC "-//W3C//DTD SVG 1.1//EN" "http://www.w3.org/Graphics/SVG/1.1/DTD/svg11.dtd">
<svg version="1.1" xmlns="http://www.w3.org/2000/svg" xmlns:xlink="http://www.w3.org/1999/xlink" x="0px" y="0px" viewBox="0 0 256 256" enable-background="new 0 0 256 256" xml:space="preserve">
<metadata> Svg Vector Icons : http://www.onlinewebfonts.com/icon </metadata>
<g><g><g><path fill="#000000" d="M47,25c-7.1,1.4-13.7,8.1-14.8,15.3l-0.3,2h72.2h72.2v14.4v14.4l8.9-8.9l8.9-8.9l-0.1-7c-0.2-8.7-1-11-5-15.3c-3-3.2-6.6-5.2-10.6-6C175,24.4,50.2,24.4,47,25z"/><path fill="#000000" d="M28.7,56.5c-6.3,1.9-12.7,3.8-14.2,4.2c-2.1,0.6-2.9,1.1-3.6,2.3c-1.2,2-1.2,3.7,0.2,5.3C12.5,70,23.9,76,25.6,76c2.7,0,5-2.2,5-4.7c0-1.3-1.2-3.6-2.1-4.1c-0.5-0.3,1.5-1.1,6.9-2.6c4.6-1.4,8.1-2.6,8.7-3.2c2.4-2.2,1.5-6.4-1.5-7.7c-0.9-0.4-1.8-0.7-2-0.6C40.4,53.1,35.1,54.6,28.7,56.5z"/><path fill="#000000" d="M174.2,94.1c-39.7,39.7-45.3,45.5-48,50c-2.2,3.7-1.8,4.2,2.8,4.2c3.3,0,3.5,0,3.9,1.3c0.3,0.8,0.2,2.3-0.2,4.5c-0.3,1.8-0.5,3.6-0.3,4c0.4,0.9,2.1,1,5.5,0.2c3-0.6,5,0,5.4,1.8c0.2,0.7,0,2.7-0.3,4.6c-0.6,3.1-0.5,3.6,0.1,4.3c0.7,0.7,1.1,0.7,3.1,0.2c3.3-0.7,5.9-0.7,6.6,0.1c0.4,0.5,0.5,1.6,0.2,3.7c-0.2,2.6-0.2,3.1,0.5,3.5c1.2,0.7,2.5,0,6.5-2.8c3.7-2.7,84.2-82.7,85.3-84.8c0.4-0.7,0.7-2,0.7-2.8c0-1.4-1.4-2.9-14.4-15.9l-14.4-14.4h-2.3h-2.3L174.2,94.1z"/><path fill="#000000" d="M26,83.5c-8.8,2.6-14,4.4-14.7,5c-0.5,0.5-1,1.8-1.2,2.8c-0.4,2.7,1.2,4.1,8.5,7.9c6.6,3.4,8.1,3.7,10.3,1.6c2.1-1.9,1.7-6-0.6-7.4c-0.5-0.3,1.4-1,6.6-2.6c4-1.2,7.8-2.5,8.4-2.9c2.8-1.9,2.2-6.7-0.9-8c-0.9-0.4-1.9-0.7-2.2-0.7C40,79.4,33.6,81.2,26,83.5z"/><path fill="#000000" d="M26.4,109.5c-7.3,2.2-13.8,4.3-14.4,4.7c-1.2,0.8-2,2.5-2,4.2c0,2.1,1.9,3.6,8.6,6.9c7.4,3.7,8.7,3.9,10.9,1.3c1-1.2,1.2-1.8,1-3.3c-0.1-1-0.7-2.3-1.3-2.9c-1.2-1.3-1.9-0.9,6.8-3.5c7.4-2.2,8.3-2.6,9.1-4.6c0.7-1.7,0.4-3.3-1.1-5C42.2,105,40.9,105.2,26.4,109.5z"/><path fill="#000000" d="M25.9,135.7c-11.7,3.5-13.5,4.1-14.6,5.3c-1.6,1.7-1.7,3.6-0.2,5.6c1.2,1.8,12.8,8,15,8c0.9,0,1.9-0.5,3-1.6c1.5-1.5,1.6-1.8,1.4-3.7c-0.2-1.3-0.7-2.3-1.5-3c-0.7-0.6-1.1-1.1-1-1.1c0.8,0,14.8-4.4,15.5-4.9c1.4-0.9,2.3-3.2,1.9-4.8c-0.5-2-2.8-3.9-4.6-3.9C40,131.8,33.3,133.6,25.9,135.7z"/><path fill="#000000" d="M25.9,162c-12,3.5-13.5,4.1-14.7,5.4c-1.1,1.3-1.3,1.8-1.1,3.4c0.3,2.5,1.5,3.5,9,7.2c6.6,3.3,8,3.5,10.1,1.2c1.7-1.8,1.6-5-0.1-6.5l-1.3-1.1l4.1-1.2c11.7-3.5,12-3.6,12.9-5.5c0.7-1.5,0.8-2,0.3-3.4c-0.7-2.1-2.5-3.5-4.4-3.5C39.9,158,33.3,159.8,25.9,162z"/><path fill="#000000" d="M185,170.9l-8.8,8.8v16.8v16.7h-72.2H31.9l0.3,2.2c1,7.5,7.9,14.3,15.8,15.6c3.9,0.6,126,0.7,129.8,0c7.4-1.2,13.4-6.5,15.5-13.6c0.7-2.3,0.7-5.9,0.7-28.9l-0.1-26.3L185,170.9z"/><path fill="#000000" d="M116,169.5c-0.7,0.4-9.6,22.4-9.6,23.6c0,1.4,1.4,1.8,3.6,1c6.8-2.3,20.5-7.7,21.3-8.4c0.5-0.5,0.9-1.2,0.9-1.6c0-0.4-1.6-2-3.6-3.6c-1.9-1.5-4.8-4.4-6.4-6.3C117.8,168.9,117.4,168.7,116,169.5z"/><path fill="#000000" d="M25.7,188.1c-11.6,3.5-13.3,4.1-14.4,5.4c-0.7,0.8-1.3,2-1.3,2.6c0,2.6,1.1,3.7,7.7,7.1c6.8,3.6,8.9,4.1,10.8,2.5c2.4-1.9,2.7-4.5,0.7-6.7l-1.4-1.5l7.5-2.2c8.7-2.5,9.9-3.3,9.9-6.5c0-2.6-2.2-4.6-4.8-4.6C39.6,184.2,32.9,186,25.7,188.1z"/></g></g></g>
</svg>